# xmcd
#
# Track frame offsets:
#	150
#	611
#	14129
#	38137
#	51252
#	68422
#	82394
#	100764
#	111368
#	131506
#	149393
#	166085
#	187285
#	237259
#
# Disc length: 3415 seconds
#
# Revision: 1
# Processed by: cddbd v1.5.1PL2 Copyright (c) Steve Scherf et al.
# Submitted via: audiograbber 1.83.01
#
DISCID=c30d550e
DTITLE=Consul Crayfish and the Blackouts - Hard To Believe
DYEAR=1997
DGENRE=Blues
TTITLE0=Sprudsch
TTITLE1=Go To Hell
TTITLE2=Aids Or Mad Cow Disease
TTITLE3=Rocking Chair
TTITLE4=Born To Crash
TTITLE5=Perfect Day To Cry
TTITLE6=Back To Normal
TTITLE7=To Good To Be True
TTITLE8=Sperm On The Backseat
TTITLE9=Aisle in White
TTITLE10=Too Fat To Fuck
TTITLE11=Hard To Believe
TTITLE12=Marrakesh Jail
TTITLE13=Good Old Ford Consul
EXTD=
EXTT0=
EXTT1=
EXTT2=
EXTT3=
EXTT4=
EXTT5=
EXTT6=
EXTT7=
EXTT8=
EXTT9=
EXTT10=
EXTT11=
EXTT12=
EXTT13=
PLAYORDER=
